<mxfile host="app.diagrams.net" modified="2021-07-20T10:28:46.735Z" agent="5.0 (X11; Linux armv7l) AppleWebKit/537.36 (KHTML, like Gecko) Raspbian Chromium/78.0.3904.108 Chrome/78.0.3904.108 Safari/537.36" etag="sP3vSJfo9yx2ZjsuU80E" version="14.8.5" type="github">
  <diagram id="EwxfycUetT-gceh_vVq2" name="Page-1">
    <mxGraphModel dx="350" dy="475" grid="1" gridSize="10" guides="1" tooltips="1" connect="1" arrows="1" fold="1" page="1" pageScale="1" pageWidth="827" pageHeight="1169" math="0" shadow="0">
      <root>
        <mxCell id="0" />
        <mxCell id="1" parent="0" />
        <mxCell id="bHgDKf8H-_BEn4HjA2IT-7" value="" style="endArrow=none;html=1;fontColor=#000000;strokeWidth=3;" edge="1" parent="1">
          <mxGeometry width="50" height="50" relative="1" as="geometry">
            <mxPoint x="282.43" y="580" as="sourcePoint" />
            <mxPoint x="282.43" y="565" as="targetPoint" />
            <Array as="points">
              <mxPoint x="282.43" y="565" />
            </Array>
          </mxGeometry>
        </mxCell>
        <mxCell id="bHgDKf8H-_BEn4HjA2IT-6" value="" style="endArrow=none;html=1;fontColor=#000000;strokeWidth=3;" edge="1" parent="1">
          <mxGeometry width="50" height="50" relative="1" as="geometry">
            <mxPoint x="517.43" y="580" as="sourcePoint" />
            <mxPoint x="517.43" y="565" as="targetPoint" />
            <Array as="points">
              <mxPoint x="517.43" y="565" />
            </Array>
          </mxGeometry>
        </mxCell>
        <mxCell id="3XeuxPja4UC_niTlmCeu-13" style="edgeStyle=orthogonalEdgeStyle;rounded=0;orthogonalLoop=1;jettySize=auto;html=1;exitX=0;exitY=0.5;exitDx=0;exitDy=0;entryX=0.5;entryY=0;entryDx=0;entryDy=0;strokeWidth=3;strokeColor=#0066CC;" parent="1" source="3XeuxPja4UC_niTlmCeu-2" target="3XeuxPja4UC_niTlmCeu-3" edge="1">
          <mxGeometry relative="1" as="geometry" />
        </mxCell>
        <mxCell id="3XeuxPja4UC_niTlmCeu-2" value="Физическая система (экспериментальная установка)" style="ellipse;whiteSpace=wrap;html=1;fontStyle=1;strokeWidth=2;" parent="1" vertex="1">
          <mxGeometry x="320" y="30" width="160" height="70" as="geometry" />
        </mxCell>
        <mxCell id="3XeuxPja4UC_niTlmCeu-14" style="edgeStyle=orthogonalEdgeStyle;rounded=0;orthogonalLoop=1;jettySize=auto;html=1;exitX=0.5;exitY=1;exitDx=0;exitDy=0;entryX=0.5;entryY=0;entryDx=0;entryDy=0;strokeWidth=3;strokeColor=#0066CC;" parent="1" source="3XeuxPja4UC_niTlmCeu-3" target="3XeuxPja4UC_niTlmCeu-5" edge="1">
          <mxGeometry relative="1" as="geometry" />
        </mxCell>
        <mxCell id="3XeuxPja4UC_niTlmCeu-3" value="&lt;font style=&quot;font-size: 14px&quot;&gt;Датчик&lt;/font&gt;" style="rounded=1;whiteSpace=wrap;html=1;strokeWidth=2;fontStyle=1" parent="1" vertex="1">
          <mxGeometry x="190" y="120" width="120" height="60" as="geometry" />
        </mxCell>
        <mxCell id="3XeuxPja4UC_niTlmCeu-21" style="edgeStyle=orthogonalEdgeStyle;rounded=0;orthogonalLoop=1;jettySize=auto;html=1;exitX=0.5;exitY=0;exitDx=0;exitDy=0;entryX=1;entryY=0.5;entryDx=0;entryDy=0;fillColor=#f5f5f5;strokeColor=#0066CC;strokeWidth=3;" parent="1" source="3XeuxPja4UC_niTlmCeu-4" target="3XeuxPja4UC_niTlmCeu-2" edge="1">
          <mxGeometry relative="1" as="geometry" />
        </mxCell>
        <mxCell id="3XeuxPja4UC_niTlmCeu-4" value="Исполнительное устройство" style="rounded=1;whiteSpace=wrap;html=1;fillColor=#FFFFFF;strokeWidth=2;fontStyle=1" parent="1" vertex="1">
          <mxGeometry x="490" y="120" width="120" height="60" as="geometry" />
        </mxCell>
        <mxCell id="3XeuxPja4UC_niTlmCeu-15" style="edgeStyle=orthogonalEdgeStyle;rounded=0;orthogonalLoop=1;jettySize=auto;html=1;exitX=0.5;exitY=1;exitDx=0;exitDy=0;entryX=0;entryY=0.5;entryDx=0;entryDy=0;strokeWidth=3;strokeColor=#0066CC;" parent="1" source="3XeuxPja4UC_niTlmCeu-5" target="3XeuxPja4UC_niTlmCeu-10" edge="1">
          <mxGeometry relative="1" as="geometry" />
        </mxCell>
        <mxCell id="3XeuxPja4UC_niTlmCeu-5" value="&lt;font style=&quot;font-size: 14px&quot;&gt;АЦП&lt;/font&gt;" style="ellipse;whiteSpace=wrap;html=1;fontStyle=1;strokeWidth=2;" parent="1" vertex="1">
          <mxGeometry x="190" y="220" width="120" height="80" as="geometry" />
        </mxCell>
        <mxCell id="3XeuxPja4UC_niTlmCeu-20" style="edgeStyle=orthogonalEdgeStyle;rounded=0;orthogonalLoop=1;jettySize=auto;html=1;exitX=0.5;exitY=0;exitDx=0;exitDy=0;entryX=0.5;entryY=1;entryDx=0;entryDy=0;fillColor=#f5f5f5;strokeColor=#0066CC;strokeWidth=3;" parent="1" source="3XeuxPja4UC_niTlmCeu-6" target="3XeuxPja4UC_niTlmCeu-4" edge="1">
          <mxGeometry relative="1" as="geometry" />
        </mxCell>
        <mxCell id="3XeuxPja4UC_niTlmCeu-6" value="ЦАП" style="ellipse;whiteSpace=wrap;html=1;strokeWidth=2;fontStyle=1;fillColor=#FFFFFF;" parent="1" vertex="1">
          <mxGeometry x="490" y="220" width="120" height="80" as="geometry" />
        </mxCell>
        <mxCell id="3XeuxPja4UC_niTlmCeu-7" value="&lt;p&gt;&lt;br&gt;&lt;/p&gt;" style="rounded=1;whiteSpace=wrap;html=1;strokeWidth=2;fontStyle=1;verticalAlign=middle;" parent="1" vertex="1">
          <mxGeometry x="330" y="320" width="140" height="140" as="geometry" />
        </mxCell>
        <mxCell id="3XeuxPja4UC_niTlmCeu-9" value="Программа" style="rounded=1;whiteSpace=wrap;html=1;fontStyle=1;strokeWidth=2;" parent="1" vertex="1">
          <mxGeometry x="360" y="340" width="80" height="40" as="geometry" />
        </mxCell>
        <mxCell id="3XeuxPja4UC_niTlmCeu-10" value="Интерфейс" style="rounded=1;whiteSpace=wrap;html=1;horizontal=0;strokeWidth=2;fontStyle=1" parent="1" vertex="1">
          <mxGeometry x="310" y="340" width="20" height="100" as="geometry" />
        </mxCell>
        <mxCell id="3XeuxPja4UC_niTlmCeu-19" style="edgeStyle=orthogonalEdgeStyle;rounded=0;orthogonalLoop=1;jettySize=auto;html=1;exitX=1;exitY=0.5;exitDx=0;exitDy=0;entryX=0.5;entryY=1;entryDx=0;entryDy=0;fillColor=#f5f5f5;strokeColor=#0066CC;strokeWidth=3;" parent="1" source="3XeuxPja4UC_niTlmCeu-11" target="3XeuxPja4UC_niTlmCeu-6" edge="1">
          <mxGeometry relative="1" as="geometry" />
        </mxCell>
        <mxCell id="3XeuxPja4UC_niTlmCeu-11" value="Интерфейс" style="rounded=1;whiteSpace=wrap;html=1;horizontal=0;verticalAlign=middle;strokeWidth=2;fillColor=#FFFFFF;fontStyle=1" parent="1" vertex="1">
          <mxGeometry x="470" y="340" width="20" height="100" as="geometry" />
        </mxCell>
        <mxCell id="3XeuxPja4UC_niTlmCeu-22" value="" style="endArrow=classic;html=1;strokeColor=#0066CC;strokeWidth=3;exitX=1;exitY=0.5;exitDx=0;exitDy=0;entryX=0;entryY=0.5;entryDx=0;entryDy=0;" parent="1" source="3XeuxPja4UC_niTlmCeu-10" target="3XeuxPja4UC_niTlmCeu-9" edge="1">
          <mxGeometry width="50" height="50" relative="1" as="geometry">
            <mxPoint x="390" y="210" as="sourcePoint" />
            <mxPoint x="440" y="160" as="targetPoint" />
          </mxGeometry>
        </mxCell>
        <mxCell id="3XeuxPja4UC_niTlmCeu-23" value="" style="endArrow=classic;html=1;strokeWidth=3;entryX=-0.15;entryY=0.41;entryDx=0;entryDy=0;entryPerimeter=0;exitX=1;exitY=0.5;exitDx=0;exitDy=0;fillColor=#f5f5f5;strokeColor=#0066CC;" parent="1" source="3XeuxPja4UC_niTlmCeu-9" target="3XeuxPja4UC_niTlmCeu-11" edge="1">
          <mxGeometry width="50" height="50" relative="1" as="geometry">
            <mxPoint x="450" y="350" as="sourcePoint" />
            <mxPoint x="440" y="160" as="targetPoint" />
          </mxGeometry>
        </mxCell>
        <mxCell id="3XeuxPja4UC_niTlmCeu-26" value="" style="ellipse;whiteSpace=wrap;html=1;aspect=fixed;strokeWidth=2;verticalAlign=middle;" parent="1" vertex="1">
          <mxGeometry x="372.5" y="510" width="55" height="55" as="geometry" />
        </mxCell>
        <mxCell id="3XeuxPja4UC_niTlmCeu-30" value="" style="endArrow=none;html=1;strokeWidth=2;exitX=0.5;exitY=1;exitDx=0;exitDy=0;" parent="1" source="3XeuxPja4UC_niTlmCeu-26" edge="1">
          <mxGeometry width="50" height="50" relative="1" as="geometry">
            <mxPoint x="580" y="590" as="sourcePoint" />
            <mxPoint x="400" y="600" as="targetPoint" />
          </mxGeometry>
        </mxCell>
        <mxCell id="3XeuxPja4UC_niTlmCeu-31" value="" style="endArrow=none;html=1;strokeWidth=2;" parent="1" edge="1">
          <mxGeometry width="50" height="50" relative="1" as="geometry">
            <mxPoint x="380" y="590" as="sourcePoint" />
            <mxPoint x="420" y="590" as="targetPoint" />
            <Array as="points">
              <mxPoint x="400" y="570" />
            </Array>
          </mxGeometry>
        </mxCell>
        <mxCell id="3XeuxPja4UC_niTlmCeu-33" value="" style="endArrow=none;html=1;strokeWidth=2;" parent="1" edge="1">
          <mxGeometry width="50" height="50" relative="1" as="geometry">
            <mxPoint x="380" y="620" as="sourcePoint" />
            <mxPoint x="400" y="600" as="targetPoint" />
          </mxGeometry>
        </mxCell>
        <mxCell id="3XeuxPja4UC_niTlmCeu-34" value="" style="endArrow=none;html=1;strokeWidth=2;" parent="1" edge="1">
          <mxGeometry width="50" height="50" relative="1" as="geometry">
            <mxPoint x="420" y="620" as="sourcePoint" />
            <mxPoint x="400" y="600" as="targetPoint" />
          </mxGeometry>
        </mxCell>
        <mxCell id="3XeuxPja4UC_niTlmCeu-35" value="" style="ellipse;whiteSpace=wrap;html=1;aspect=fixed;strokeWidth=2;verticalAlign=middle;" parent="1" vertex="1">
          <mxGeometry x="404" y="520" width="20" height="20" as="geometry" />
        </mxCell>
        <mxCell id="3XeuxPja4UC_niTlmCeu-38" value="" style="ellipse;whiteSpace=wrap;html=1;aspect=fixed;strokeWidth=2;verticalAlign=middle;" parent="1" vertex="1">
          <mxGeometry x="372.5" y="520" width="20" height="20" as="geometry" />
        </mxCell>
        <mxCell id="3XeuxPja4UC_niTlmCeu-42" value="" style="shape=waypoint;sketch=0;fillStyle=solid;size=6;pointerEvents=1;points=[];fillColor=none;resizable=0;rotatable=0;perimeter=centerPerimeter;snapToPoint=1;strokeWidth=2;verticalAlign=middle;" parent="1" vertex="1">
          <mxGeometry x="392.5" y="510" width="40" height="40" as="geometry" />
        </mxCell>
        <mxCell id="3XeuxPja4UC_niTlmCeu-43" value="" style="shape=waypoint;sketch=0;fillStyle=solid;size=6;pointerEvents=1;points=[];fillColor=none;resizable=0;rotatable=0;perimeter=centerPerimeter;snapToPoint=1;strokeWidth=2;verticalAlign=middle;" parent="1" vertex="1">
          <mxGeometry x="380" y="525" width="40" height="40" as="geometry" />
        </mxCell>
        <mxCell id="3XeuxPja4UC_niTlmCeu-46" value="" style="curved=1;endArrow=classic;html=1;strokeWidth=3;exitX=0.167;exitY=1.008;exitDx=0;exitDy=0;exitPerimeter=0;strokeColor=#0066CC;entryX=0.5;entryY=0;entryDx=0;entryDy=0;" parent="1" source="3XeuxPja4UC_niTlmCeu-9" edge="1" target="bHgDKf8H-_BEn4HjA2IT-2">
          <mxGeometry width="50" height="50" relative="1" as="geometry">
            <mxPoint x="355" y="492.5" as="sourcePoint" />
            <mxPoint x="365" y="540" as="targetPoint" />
            <Array as="points">
              <mxPoint x="373" y="430" />
              <mxPoint x="350" y="470" />
              <mxPoint x="300" y="470" />
            </Array>
          </mxGeometry>
        </mxCell>
        <mxCell id="3XeuxPja4UC_niTlmCeu-50" value="" style="curved=1;endArrow=classic;html=1;strokeWidth=3;entryX=0.75;entryY=1;entryDx=0;entryDy=0;entryPerimeter=0;strokeColor=#0066CC;exitX=0.5;exitY=0;exitDx=0;exitDy=0;" parent="1" target="3XeuxPja4UC_niTlmCeu-9" edge="1" source="bHgDKf8H-_BEn4HjA2IT-3">
          <mxGeometry width="50" height="50" relative="1" as="geometry">
            <mxPoint x="434" y="540" as="sourcePoint" />
            <mxPoint x="455.03" y="380.00000000000006" as="targetPoint" />
            <Array as="points">
              <mxPoint x="500" y="470" />
              <mxPoint x="420" y="470" />
            </Array>
          </mxGeometry>
        </mxCell>
        <mxCell id="3XeuxPja4UC_niTlmCeu-41" value="" style="shape=waypoint;sketch=0;fillStyle=solid;size=6;pointerEvents=1;points=[];fillColor=none;resizable=0;rotatable=0;perimeter=centerPerimeter;snapToPoint=1;strokeWidth=2;verticalAlign=middle;" parent="1" vertex="1">
          <mxGeometry x="364" y="510" width="40" height="40" as="geometry" />
        </mxCell>
        <mxCell id="3XeuxPja4UC_niTlmCeu-52" value="" style="ellipse;whiteSpace=wrap;html=1;aspect=fixed;strokeWidth=0.8;verticalAlign=middle;fillColor=none;" parent="1" vertex="1">
          <mxGeometry x="368.75" y="516.25" width="27.5" height="27.5" as="geometry" />
        </mxCell>
        <mxCell id="3XeuxPja4UC_niTlmCeu-53" value="" style="ellipse;whiteSpace=wrap;html=1;aspect=fixed;strokeWidth=0.8;verticalAlign=middle;fillColor=none;" parent="1" vertex="1">
          <mxGeometry x="400" y="516.25" width="27.5" height="27.5" as="geometry" />
        </mxCell>
        <mxCell id="3XeuxPja4UC_niTlmCeu-57" value="" style="endArrow=none;html=1;strokeWidth=0.8;entryX=0;entryY=0.5;entryDx=0;entryDy=0;exitX=1;exitY=0.5;exitDx=0;exitDy=0;" parent="1" source="3XeuxPja4UC_niTlmCeu-52" target="3XeuxPja4UC_niTlmCeu-53" edge="1">
          <mxGeometry width="50" height="50" relative="1" as="geometry">
            <mxPoint x="400" y="570" as="sourcePoint" />
            <mxPoint x="450" y="520" as="targetPoint" />
          </mxGeometry>
        </mxCell>
        <mxCell id="3XeuxPja4UC_niTlmCeu-58" value="" style="endArrow=none;html=1;strokeColor=#000000;strokeWidth=0.5;exitX=0;exitY=0;exitDx=0;exitDy=0;entryX=0;entryY=0;entryDx=0;entryDy=0;" parent="1" source="3XeuxPja4UC_niTlmCeu-52" target="3XeuxPja4UC_niTlmCeu-52" edge="1">
          <mxGeometry width="50" height="50" relative="1" as="geometry">
            <mxPoint x="400" y="570" as="sourcePoint" />
            <mxPoint x="450" y="520" as="targetPoint" />
          </mxGeometry>
        </mxCell>
        <mxCell id="3XeuxPja4UC_niTlmCeu-61" value="" style="pointerEvents=1;shadow=0;dashed=0;html=1;strokeColor=none;labelPosition=center;verticalLabelPosition=bottom;verticalAlign=top;outlineConnect=0;align=center;shape=mxgraph.office.concepts.book_journal;rotation=-45;fillColor=#FF8000;" parent="1" vertex="1">
          <mxGeometry x="368.75" y="585" width="16" height="20" as="geometry" />
        </mxCell>
        <mxCell id="3XeuxPja4UC_niTlmCeu-71" value="Данные" style="text;html=1;strokeColor=none;fillColor=none;align=center;verticalAlign=middle;whiteSpace=wrap;rounded=0;fontColor=#0066CC;fontStyle=1;fontSize=16;horizontal=1;" parent="1" vertex="1">
          <mxGeometry x="250" y="450" width="40" height="20" as="geometry" />
        </mxCell>
        <mxCell id="bHgDKf8H-_BEn4HjA2IT-2" value="" style="rounded=1;whiteSpace=wrap;html=1;fontColor=#000000;strokeColor=#000000;strokeWidth=2;fillColor=#FFFFFF;" vertex="1" parent="1">
          <mxGeometry x="235" y="510" width="95" height="60" as="geometry" />
        </mxCell>
        <mxCell id="bHgDKf8H-_BEn4HjA2IT-3" value="" style="rounded=1;whiteSpace=wrap;html=1;fontColor=#000000;strokeColor=#000000;strokeWidth=2;fillColor=#FFFFFF;" vertex="1" parent="1">
          <mxGeometry x="470" y="510" width="95" height="60" as="geometry" />
        </mxCell>
        <mxCell id="bHgDKf8H-_BEn4HjA2IT-4" value="" style="rounded=1;whiteSpace=wrap;html=1;fontColor=#000000;strokeColor=#000000;strokeWidth=1;fillColor=#FFFFFF;" vertex="1" parent="1">
          <mxGeometry x="238.75" y="515" width="87.5" height="50" as="geometry" />
        </mxCell>
        <mxCell id="bHgDKf8H-_BEn4HjA2IT-5" value="" style="rounded=1;whiteSpace=wrap;html=1;fontColor=#000000;strokeWidth=1;fillColor=#4D4D4D;" vertex="1" parent="1">
          <mxGeometry x="473.75" y="515" width="87.5" height="50" as="geometry" />
        </mxCell>
        <mxCell id="bHgDKf8H-_BEn4HjA2IT-8" value="" style="endArrow=none;html=1;fontColor=#000000;strokeColor=#000000;strokeWidth=3;" edge="1" parent="1">
          <mxGeometry width="50" height="50" relative="1" as="geometry">
            <mxPoint x="272.5" y="580" as="sourcePoint" />
            <mxPoint x="292.5" y="580" as="targetPoint" />
          </mxGeometry>
        </mxCell>
        <mxCell id="bHgDKf8H-_BEn4HjA2IT-9" value="" style="endArrow=none;html=1;fontColor=#000000;strokeColor=#000000;strokeWidth=3;" edge="1" parent="1">
          <mxGeometry width="50" height="50" relative="1" as="geometry">
            <mxPoint x="507.5" y="580" as="sourcePoint" />
            <mxPoint x="527.5" y="580" as="targetPoint" />
          </mxGeometry>
        </mxCell>
        <mxCell id="bHgDKf8H-_BEn4HjA2IT-10" value="&lt;font color=&quot;#0066cc&quot;&gt;_________&lt;/font&gt;" style="text;html=1;strokeColor=none;fillColor=none;align=left;verticalAlign=middle;whiteSpace=wrap;rounded=0;fontColor=#000000;" vertex="1" parent="1">
          <mxGeometry x="250" y="540" width="40" height="20" as="geometry" />
        </mxCell>
        <mxCell id="bHgDKf8H-_BEn4HjA2IT-11" value="&lt;font color=&quot;#0066cc&quot;&gt;_____&lt;/font&gt;" style="text;html=1;strokeColor=none;fillColor=none;align=right;verticalAlign=middle;whiteSpace=wrap;rounded=0;fontColor=#000000;rotation=90;" vertex="1" parent="1">
          <mxGeometry x="235" y="530" width="47.5" height="10" as="geometry" />
        </mxCell>
        <mxCell id="bHgDKf8H-_BEn4HjA2IT-12" value="" style="endArrow=none;html=1;fontColor=#000000;strokeWidth=1;strokeColor=#0066CC;exitX=0.76;exitY=1.162;exitDx=0;exitDy=0;exitPerimeter=0;" edge="1" parent="1" source="bHgDKf8H-_BEn4HjA2IT-11">
          <mxGeometry width="50" height="50" relative="1" as="geometry">
            <mxPoint x="259" y="545" as="sourcePoint" />
            <mxPoint x="306" y="525" as="targetPoint" />
            <Array as="points">
              <mxPoint x="280" y="530" />
              <mxPoint x="290" y="550" />
            </Array>
          </mxGeometry>
        </mxCell>
        <mxCell id="bHgDKf8H-_BEn4HjA2IT-14" value="Компьютер" style="text;html=1;strokeColor=none;fillColor=none;align=center;verticalAlign=middle;whiteSpace=wrap;rounded=0;fontColor=#000000;fontStyle=1" vertex="1" parent="1">
          <mxGeometry x="380" y="300" width="40" height="20" as="geometry" />
        </mxCell>
        <mxCell id="bHgDKf8H-_BEn4HjA2IT-15" value="" style="endArrow=classic;html=1;strokeWidth=1;" edge="1" parent="1">
          <mxGeometry width="50" height="50" relative="1" as="geometry">
            <mxPoint x="338.75" y="565" as="sourcePoint" />
            <mxPoint x="368.75" y="575" as="targetPoint" />
          </mxGeometry>
        </mxCell>
        <mxCell id="bHgDKf8H-_BEn4HjA2IT-16" value="" style="endArrow=classic;html=1;strokeWidth=1;" edge="1" parent="1">
          <mxGeometry width="50" height="50" relative="1" as="geometry">
            <mxPoint x="427.5" y="575" as="sourcePoint" />
            <mxPoint x="457.5" y="565" as="targetPoint" />
          </mxGeometry>
        </mxCell>
        <mxCell id="bHgDKf8H-_BEn4HjA2IT-18" value="" style="rounded=1;whiteSpace=wrap;html=1;fontColor=#000000;strokeColor=#000000;strokeWidth=1;align=right;fillColor=#333333;rotation=90;" vertex="1" parent="1">
          <mxGeometry x="527.5" y="530.62" width="45" height="18.75" as="geometry" />
        </mxCell>
        <mxCell id="bHgDKf8H-_BEn4HjA2IT-19" value="" style="rounded=1;whiteSpace=wrap;html=1;fontColor=#000000;strokeColor=#000000;strokeWidth=1;align=right;fillColor=#333333;rotation=90;" vertex="1" parent="1">
          <mxGeometry x="457.5" y="535.36" width="45" height="8.39" as="geometry" />
        </mxCell>
        <mxCell id="bHgDKf8H-_BEn4HjA2IT-20" value="&lt;font color=&quot;#ffffff&quot; style=&quot;font-size: 8px&quot;&gt;_&lt;br&gt;_&lt;br&gt;_&lt;br&gt;_&lt;/font&gt;" style="text;html=1;strokeColor=none;fillColor=none;align=center;verticalAlign=middle;whiteSpace=wrap;rounded=0;fontColor=#000000;" vertex="1" parent="1">
          <mxGeometry x="460" y="523.75" width="40" height="20" as="geometry" />
        </mxCell>
        <mxCell id="bHgDKf8H-_BEn4HjA2IT-22" value="&lt;font color=&quot;#ffffff&quot; style=&quot;font-size: 8px&quot;&gt;_&lt;br&gt;_&lt;br&gt;_&lt;br&gt;&lt;br&gt;&lt;/font&gt;" style="text;html=1;strokeColor=none;fillColor=none;align=center;verticalAlign=middle;whiteSpace=wrap;rounded=0;fontColor=#000000;" vertex="1" parent="1">
          <mxGeometry x="460" y="525" width="40" height="20" as="geometry" />
        </mxCell>
        <mxCell id="bHgDKf8H-_BEn4HjA2IT-23" value="&lt;font color=&quot;#ffffff&quot; style=&quot;font-size: 8px&quot;&gt;_&lt;br&gt;_&lt;br&gt;_&lt;br&gt;_&lt;/font&gt;" style="text;html=1;strokeColor=none;fillColor=none;align=center;verticalAlign=middle;whiteSpace=wrap;rounded=0;fontColor=#000000;" vertex="1" parent="1">
          <mxGeometry x="460" y="527.5" width="40" height="20" as="geometry" />
        </mxCell>
        <mxCell id="bHgDKf8H-_BEn4HjA2IT-25" value="&lt;font style=&quot;font-size: 14px&quot; color=&quot;#b266ff&quot;&gt;__&lt;/font&gt;" style="text;html=1;align=center;verticalAlign=middle;resizable=0;points=[];autosize=1;strokeColor=none;fontColor=#000000;" vertex="1" parent="1">
          <mxGeometry x="480" y="500" width="30" height="20" as="geometry" />
        </mxCell>
        <mxCell id="bHgDKf8H-_BEn4HjA2IT-26" value="&lt;font style=&quot;font-size: 14px&quot; color=&quot;#b266ff&quot;&gt;__&lt;/font&gt;" style="text;html=1;align=center;verticalAlign=middle;resizable=0;points=[];autosize=1;strokeColor=none;fontColor=#000000;" vertex="1" parent="1">
          <mxGeometry x="480" y="503.75" width="30" height="20" as="geometry" />
        </mxCell>
        <mxCell id="bHgDKf8H-_BEn4HjA2IT-28" value="&lt;font color=&quot;#ff9933&quot; style=&quot;font-size: 14px&quot;&gt;_____&lt;/font&gt;" style="text;html=1;align=center;verticalAlign=middle;resizable=0;points=[];autosize=1;strokeColor=none;fontColor=#000000;" vertex="1" parent="1">
          <mxGeometry x="490" y="507.5" width="50" height="20" as="geometry" />
        </mxCell>
        <mxCell id="bHgDKf8H-_BEn4HjA2IT-29" value="&lt;font color=&quot;#ff9933&quot; style=&quot;font-size: 14px&quot;&gt;_____&lt;/font&gt;" style="text;html=1;align=center;verticalAlign=middle;resizable=0;points=[];autosize=1;strokeColor=none;fontColor=#000000;" vertex="1" parent="1">
          <mxGeometry x="490" y="527.5" width="50" height="20" as="geometry" />
        </mxCell>
        <mxCell id="bHgDKf8H-_BEn4HjA2IT-32" value="&lt;font color=&quot;#007fff&quot; style=&quot;font-size: 8px&quot;&gt;_&lt;br&gt;_&lt;br&gt;_&lt;/font&gt;" style="text;html=1;align=center;verticalAlign=middle;resizable=0;points=[];autosize=1;strokeColor=none;fontColor=#000000;" vertex="1" parent="1">
          <mxGeometry x="485" y="512.5" width="20" height="50" as="geometry" />
        </mxCell>
        <mxCell id="bHgDKf8H-_BEn4HjA2IT-33" value="&lt;font color=&quot;#ffffff&quot;&gt;__&lt;br&gt;___&lt;br&gt;&lt;/font&gt;&lt;div&gt;&lt;span&gt;&lt;font color=&quot;#ffffff&quot;&gt;__&lt;/font&gt;&lt;/span&gt;&lt;/div&gt;" style="text;html=1;align=left;verticalAlign=middle;resizable=0;points=[];autosize=1;strokeColor=none;fontColor=#000000;" vertex="1" parent="1">
          <mxGeometry x="490" y="510" width="40" height="50" as="geometry" />
        </mxCell>
        <mxCell id="bHgDKf8H-_BEn4HjA2IT-34" value="&lt;font color=&quot;#ffffff&quot;&gt;__&lt;br&gt;___&lt;br&gt;&lt;/font&gt;&lt;div&gt;&lt;span&gt;&lt;font color=&quot;#ffffff&quot;&gt;__&lt;/font&gt;&lt;/span&gt;&lt;/div&gt;" style="text;html=1;align=left;verticalAlign=middle;resizable=0;points=[];autosize=1;strokeColor=none;fontColor=#000000;" vertex="1" parent="1">
          <mxGeometry x="490" y="516.25" width="40" height="50" as="geometry" />
        </mxCell>
        <mxCell id="bHgDKf8H-_BEn4HjA2IT-35" value="&lt;font color=&quot;#b266ff&quot;&gt;_&lt;/font&gt;" style="text;html=1;align=center;verticalAlign=middle;resizable=0;points=[];autosize=1;strokeColor=none;fontColor=#000000;" vertex="1" parent="1">
          <mxGeometry x="480" y="535" width="20" height="20" as="geometry" />
        </mxCell>
      </root>
    </mxGraphModel>
  </diagram>
</mxfile>
